<?xml version="1.0" encoding="UTF-8"?>
<svg version="1.1" xmlns="http://www.w3.org/2000/svg" width="500" height="500">
<path d="M0 0 C4.32739654 3.66887968 7.63642978 7.38294949 8.43359375 13.12109375 C8.44677604 24.31285769 8.44677604 24.31285769 4 29 C0.36627552 32.43730694 -3.36566344 34.17936778 -8 36 C-9.66699682 36.66584068 -11.33372717 37.33234959 -13 38 C-12.62230469 38.57363281 -12.24460938 39.14726562 -11.85546875 39.73828125 C-7.89725476 45.84709394 -4.18925282 52.06510085 -0.5625 58.375 C6.23899965 71.41505773 6.23899965 71.41505773 15 83 C15 83.66 15 84.32 15 85 C9.39 85 3.78 85 -2 85 C-2.35449219 83.59492188 -2.70898438 82.18984375 -3.07421875 80.7421875 C-5.01633606 74.27756502 -8.30920694 68.85499347 -11.8125 63.125 C-13.03116033 61.10907309 -14.24601716 59.09084193 -15.45703125 57.0703125 C-16.36509521 55.58772949 -16.36509521 55.58772949 -17.29150391 54.07519531 C-19 51 -19 51 -20.32958984 47.60449219 C-21.63691786 44.30418485 -22.7100767 41.71987629 -25 39 C-29.40683312 37.68780307 -33.43817438 37.64804906 -38 38 C-37.90650544 43.64197837 -37.8004205 49.28352556 -37.68261719 54.92504883 C-37.64431423 56.84457904 -37.60946367 58.76418135 -37.578125 60.68383789 C-37.53250298 63.4418313 -37.4745042 66.19932777 -37.4140625 68.95703125 C-37.40251129 69.81649857 -37.39096008 70.67596588 -37.37905884 71.56147766 C-37.35918915 72.36208115 -37.33931946 73.16268463 -37.31884766 73.98754883 C-37.30552399 74.6914827 -37.29220032 75.39541656 -37.2784729 76.12068176 C-37.08755815 78.33097464 -37.08755815 78.33097464 -35 81 C-35.33 82.65 -35.66 84.3 -36 86 C-40.95 85.67 -45.9 85.34 -51 85 C-51 81.29971648 -50.90280403 77.61992267 -50.78125 73.921875 C-50.26472096 57.55681405 -49.87962543 41.19395016 -49.82275391 24.82019043 C-49.81596291 23.07660254 -49.80575509 21.33302434 -49.79199219 19.58947754 C-49.7740562 17.13637779 -49.76983331 14.68362659 -49.76953125 12.23046875 C-49.76238602 11.51418808 -49.75524078 10.79790741 -49.74787903 10.05992126 C-49.77001778 5.0864855 -50.64607471 0.78820691 -52 -4 C-15.11587166 -9.00123774 -15.11587166 -9.00123774 0 0 Z M-38 -2 C-38.0246501 3.10863896 -38.04283607 8.21724359 -38.05493164 13.32592773 C-38.05997204 15.06519168 -38.0668043 16.80445136 -38.07543945 18.54370117 C-38.08751792 21.03825937 -38.09323108 23.53276173 -38.09765625 26.02734375 C-38.10281754 26.80963852 -38.10797882 27.59193329 -38.11329651 28.39793396 C-38.11349226 30.26567114 -38.06199694 32.13329204 -38 34 C-35.64658494 36.35341506 -29.30520891 35.3117898 -26.00878906 35.31469727 C-18.88332454 35.19528002 -13.50531435 34.29559469 -8.171875 29.28125 C-3.59711411 24.23618659 -2.69109907 20.23988417 -2.7890625 13.5 C-3.21287459 8.47704193 -5.23812526 5.77959276 -8.6875 2.25 C-14.73776934 -2.39097337 -22.21672393 -2.27920617 -29.5 -2.125 C-30.32242188 -2.11597656 -31.14484375 -2.10695312 -31.9921875 -2.09765625 C-33.99492083 -2.07436865 -35.99750154 -2.03850959 -38 -2 Z " fill="#010101" transform="translate(70,211)"/>
<path d="M0 0 C0.33 12.87 0.66 25.74 1 39 C1.66 39.33 2.32 39.66 3 40 C3.2475 39.40574219 3.495 38.81148437 3.75 38.19921875 C5.19062883 35.66461241 6.6396772 34.50030435 9 32.8125 C10.051875 32.04873047 10.051875 32.04873047 11.125 31.26953125 C15.56760266 28.26151903 19.76684741 28.58685637 25 29 C31.10259134 30.8307774 35.52733987 35.80211639 39 41 C41.67740069 47.16989716 42.75725604 53.55891732 43.625 60.1875 C43.75124756 61.10152588 43.87749512 62.01555176 44.00756836 62.95727539 C44.85988051 69.33140475 45.428579 75.66252271 45.69140625 82.08984375 C45.95691444 85.5854998 45.95691444 85.5854998 48 91 C43.05 91 38.1 91 33 91 C33 88.56889744 33.01841467 86.13757981 33.0703125 83.70703125 C33.29126871 67.97179261 33.45584593 48.81684339 23 36 C19.72942857 33.81961905 18.79480531 33.36753245 15 34 C7.33246721 39.50489533 3.469086 50.47608327 1.4609375 59.3828125 C0.12597801 69.85885053 0.51102368 80.57716576 2 91 C-2.95 91 -7.9 91 -13 91 C-14 88 -14 88 -13.0776825 85.77331543 C-11.71128135 82.25700946 -11.75296608 79.39787133 -11.75708008 75.62695312 C-11.75518173 74.90273666 -11.75328339 74.1785202 -11.75132751 73.43235779 C-11.74763571 71.04854356 -11.75830176 68.66503696 -11.76953125 66.28125 C-11.77072417 64.61885616 -11.77117598 62.95646163 -11.7709198 61.29406738 C-11.77248196 57.81400315 -11.78075081 54.33404217 -11.79418945 50.85400391 C-11.81117879 46.39862541 -11.81500358 41.94336028 -11.81424427 37.48795319 C-11.81451652 34.05640587 -11.82000658 30.62488322 -11.82724571 27.19334412 C-11.8304223 25.55073737 -11.83239742 23.90812784 -11.83313942 22.26551819 C-11.83531372 19.9679796 -11.84408143 17.67055981 -11.85473633 15.37304688 C-11.85854813 14.06686401 -11.86235992 12.76068115 -11.86628723 11.41491699 C-11.98151637 8.47205714 -12.31267485 5.85500679 -13 3 C-11.21189234 2.30329584 -9.41937948 1.61788811 -7.625 0.9375 C-6.62726563 0.55464844 -5.62953125 0.17179688 -4.6015625 -0.22265625 C-2 -1 -2 -1 0 0 Z " fill="#010101" transform="translate(392,205)"/>
<path d="M0 0 C3.78333072 4.20247523 5.1024869 8.41456957 5.71484375 13.92578125 C5.08730054 19.99203231 2.68067533 24.57551607 -1.66015625 28.86328125 C-10.22826045 35.62950946 -23.50905602 35.60069714 -33.94921875 35.5703125 C-35.83568115 35.56608276 -35.83568115 35.56608276 -37.76025391 35.56176758 C-39.19570557 35.55632935 -39.19570557 35.55632935 -40.66015625 35.55078125 C-41.584126 59.21851019 -41.584126 59.21851019 -38.66015625 82.55078125 C-43.94015625 82.55078125 -49.22015625 82.55078125 -54.66015625 82.55078125 C-54.66015625 78.55078125 -54.66015625 78.55078125 -53.66015625 76.55078125 C-53.55700466 74.14129769 -53.51333988 71.76052703 -53.51489258 69.35058594 C-53.51153397 68.60890671 -53.50817535 67.86722748 -53.50471497 67.10307312 C-53.49519074 64.64291727 -53.49326085 62.18282941 -53.4921875 59.72265625 C-53.48897499 58.01352917 -53.48561092 56.30440237 -53.48210144 54.59527588 C-53.47610582 51.00735843 -53.47426189 47.41946508 -53.47485352 43.83154297 C-53.47495495 39.24049968 -53.4613245 34.64961172 -53.44408131 30.05860519 C-53.43294348 26.52579036 -53.43093489 22.99301279 -53.43146324 19.46018219 C-53.43028498 17.76815508 -53.42587182 16.07612694 -53.41813087 14.38411713 C-53.40829881 12.01215376 -53.41122205 9.64052379 -53.41723633 7.26855469 C-53.41161682 6.57326157 -53.40599731 5.87796844 -53.40020752 5.16160583 C-53.42741353 0.92455579 -54.11812841 -2.50709784 -55.66015625 -6.44921875 C-38.84144051 -10.12156219 -13.93860231 -12.1675799 0 0 Z M-40.66015625 -3.44921875 C-40.99336623 0.5886536 -41.08742374 4.63765851 -41.21777344 8.68676758 C-41.28431857 10.71277763 -41.36231201 12.73811778 -41.44140625 14.76367188 C-41.48523438 16.04822266 -41.5290625 17.33277344 -41.57421875 18.65625 C-41.61498535 19.83340576 -41.65575195 21.01056152 -41.69775391 22.22338867 C-41.66134034 25.4459894 -41.28123793 28.39346601 -40.66015625 31.55078125 C-31.84213063 34.06734107 -21.38942272 33.00299349 -13.28515625 28.80078125 C-9.08362561 25.19946928 -7.0493493 22.13349965 -5.72265625 16.73828125 C-5.3080503 11.17830921 -6.63226341 6.12127245 -10.10546875 1.71875 C-17.55376874 -5.40043906 -26.90699173 -4.66525627 -36.59765625 -4.6171875 C-39.53404326 -4.79777214 -39.53404326 -4.79777214 -40.66015625 -3.44921875 Z " fill="#010101" transform="translate(370.66015625,213.44921875)"/>
<path d="M0 0 C7.313964 5.27143559 12.17004234 11.84606685 14.5859375 20.55859375 C15.65123947 30.3197327 14.45996515 38.29935385 8.59765625 46.2578125 C2.2475825 53.77042134 -2.88080354 57.35471354 -12.6640625 58.49609375 C-21.51363861 58.92778039 -30.53403084 57.478621 -37.4140625 51.55859375 C-44.70170521 44.48008869 -48.56891096 37.89770262 -48.9140625 27.62109375 C-48.53752072 16.99805131 -45.08922978 10.35217951 -37.79296875 2.6953125 C-27.44223299 -6.60165377 -11.75158731 -7.01672446 0 0 Z M-32.6015625 4.68359375 C-37.9551709 13.17552431 -38.94979257 22.71179718 -36.7578125 32.484375 C-34.21288605 40.23981897 -30.00209163 48.61218781 -22.9765625 53.18359375 C-17.37042208 55.34736725 -13.51647685 55.17481865 -7.7890625 53.49609375 C-2.13613973 50.25089734 1.65873901 45.83298885 3.5859375 39.55859375 C4.70797504 26.68125594 3.38803908 16.58687532 -4.90234375 6.25 C-8.73438342 1.96247241 -11.88397605 -0.10765262 -17.5625 -0.64453125 C-23.83614657 -0.77660802 -27.94823081 0.16321439 -32.6015625 4.68359375 Z " fill="#010101" transform="translate(298.4140625,237.44140625)"/>
<path d="M0 0 C6.7252378 4.0512098 12.60484186 9.56427238 15.4375 17 C15.4375 17.66 15.4375 18.32 15.4375 19 C12.91274538 20.26237731 11.12549534 20.09856404 8.3125 20.0625 C7.40242188 20.05347656 6.49234375 20.04445313 5.5546875 20.03515625 C4.50667969 20.01775391 4.50667969 20.01775391 3.4375 20 C3.4375 20.66 3.4375 21.32 3.4375 22 C4.200625 22.268125 4.96375 22.53625 5.75 22.8125 C9.30721178 24.38429125 10.84009747 25.72775386 12.4921875 29.24609375 C14.41385111 34.84432864 14.49289449 41.05187325 12.4921875 46.640625 C9.64930898 52.04030621 6.76726771 55.84835102 0.83984375 57.8984375 C-9.29924428 60.75046484 -20.23494056 61.81434601 -29.84375 56.8125 C-37.93129023 51.85214199 -42.7296517 45.72107523 -45.09375 36.50390625 C-46.64705775 28.20665399 -45.58790548 20.10481396 -41.23828125 12.765625 C-38.1885968 8.50727296 -34.83143857 5.07363577 -30.5625 2 C-29.79099609 1.41025391 -29.79099609 1.41025391 -29.00390625 0.80859375 C-21.17988048 -4.19250958 -8.30921275 -3.80033761 0 0 Z M-27.875 5.1875 C-32.65065791 10.18528153 -33.85430333 15.4280831 -34.64453125 22.08203125 C-34.76859794 24.24473252 -34.76859794 24.24473252 -32.5625 26 C-25.13972862 27.79994242 -18.96352514 24.71835464 -12.41357422 21.64648438 C-7.49747628 19.34768266 -2.94869394 17.86563831 2.4375 17 C1.27303794 10.34593106 -3.27467285 6.71760561 -8.5625 3 C-15.52014095 -0.40729333 -21.71396215 1.1188901 -27.875 5.1875 Z M-18.29296875 27.53515625 C-22.33199534 29.34475598 -26.15244382 30.08939996 -30.515625 30.67578125 C-32.551066 30.79264087 -32.551066 30.79264087 -33.5625 32 C-33.27368671 38.93151901 -30.59268998 44.74842628 -25.8515625 49.8359375 C-20.24324601 54.85648283 -15.02293551 56.65043392 -7.484375 56.5078125 C-1.5126342 55.46994311 3.35449192 51.78810901 6.94921875 46.9765625 C8.19264506 44.91552618 8.19264506 44.91552618 9.4375 42 C9.7675 42 10.0975 42 10.4375 42 C10.4375 39.69 10.4375 37.38 10.4375 35 C9.7775 35 9.1175 35 8.4375 35 C8.39625 34.319375 8.355 33.63875 8.3125 32.9375 C7.0317057 28.63769058 5.07577106 25.67301548 1.4375 23 C-5.82645413 20.79721247 -11.91303546 24.31870115 -18.29296875 27.53515625 Z " fill="#010101" transform="translate(132.5625,236)"/>
<path d="M0 0 C1.47906892 -0.02689216 2.95827483 -0.04634621 4.4375 -0.0625 C5.26121094 -0.07410156 6.08492187 -0.08570313 6.93359375 -0.09765625 C9 0 9 0 10 1 C10.44999897 6.62498715 9.41889075 10.06143138 7 15 C9.97 15.66 12.94 16.32 16 17 C16 17.99 16 18.98 16 20 C12.04 20.495 12.04 20.495 8 21 C6.81447837 24.55656489 6.87043613 27.40683302 6.8671875 31.16015625 C6.86623077 31.86466415 6.86527405 32.56917206 6.86428833 33.29502869 C6.86360792 34.78872771 6.86545254 36.2824297 6.86962891 37.77612305 C6.87492331 40.02985552 6.86970846 42.28338356 6.86328125 44.53710938 C6.34517794 59.33297794 6.34517794 59.33297794 11 73 C14.83519601 73.30079969 17.2856803 73.39869006 20.6875 71.5 C23.65105326 68.29615864 25.22873519 64.95128304 27 61 C28 59 29 57 30 55 C30.99 55.33 31.98 55.66 33 56 C33.46464613 61.30337474 32.17158453 64.15255958 29.375 68.625 C28.36566406 70.28402344 28.36566406 70.28402344 27.3359375 71.9765625 C23.96340509 76.3416797 21.06299011 78.66007549 15.5625 79.56640625 C4.75279882 79.55455351 4.75279882 79.55455351 1.3125 76.9375 C-3.96653792 70.23169507 -5.13893378 63.44552061 -5.2109375 55.0625 C-5.23899506 53.26301156 -5.26765944 51.46353251 -5.296875 49.6640625 C-5.33821307 46.82649896 -5.37510077 43.98911264 -5.40136719 41.15136719 C-5.42891188 38.41304433 -5.47476904 35.67551782 -5.5234375 32.9375 C-5.52669037 32.08744385 -5.52994324 31.2373877 -5.53329468 30.36157227 C-5.48257651 26.0449709 -5.48257651 26.0449709 -7.33853149 22.31469727 C-9.07830842 20.78462298 -9.07830842 20.78462298 -12 20 C-11.505 18.515 -11.505 18.515 -11 17 C-10.05125 16.5875 -9.1025 16.175 -8.125 15.75 C-3.09843484 12.93512351 -2.35539919 8.30835726 -0.8125 3.0625 C-0.544375 2.051875 -0.27625 1.04125 0 0 Z " fill="#010101" transform="translate(163,217)"/>
<path d="M0 0 C3.96 0 7.92 0 12 0 C12.33 1.32 12.66 2.64 13 4 C13.825 3.34 14.65 2.68 15.5 2 C19.51469346 -0.30824265 23.53259154 -0.45040246 28.0625 -0.5 C28.74699219 -0.51804688 29.43148437 -0.53609375 30.13671875 -0.5546875 C35.21353876 -0.49588264 38.09174433 0.83755051 42 4 C45.71659076 8.56609723 47.36728403 13.43392283 49 19 C46.9041858 20.05837122 44.79801958 21.09626587 42.6875 22.125 C41.51574219 22.70507812 40.34398437 23.28515625 39.13671875 23.8828125 C38.10160156 24.25148438 37.06648438 24.62015625 36 25 C35.01 24.34 34.02 23.68 33 23 C33.495 21.515 33.495 21.515 34 20 C34.41390488 15.74951528 34.36989771 12.04441706 32.9375 8 C31.04303358 5.71992278 31.04303358 5.71992278 27.6875 5 C23.46324357 5 21.47570749 5.63019944 18 8 C13.47892718 13.92416438 13.86016403 20.33878223 13.90234375 27.45703125 C13.90446617 28.81147591 13.90446617 28.81147591 13.90663147 30.19328308 C13.91221177 33.06638963 13.92476066 35.93941716 13.9375 38.8125 C13.94251755 40.76497283 13.94708001 42.71744689 13.95117188 44.66992188 C13.96217475 49.44664485 13.97942582 54.22330904 14 59 C14.66 59 15.32 59 16 59 C15.67 59.99 15.34 60.98 15 62 C10.05 62 5.1 62 0 62 C0.33644531 59.93621094 0.67289063 57.87242187 1.01953125 55.74609375 C2.27254121 47.02696354 2.08883198 38.42725632 1.77856445 29.64526367 C1.68676788 27.04173573 1.61243927 24.43814392 1.54101562 21.83398438 C1.49058074 20.15101148 1.43918325 18.4680671 1.38671875 16.78515625 C1.36373215 16.02042496 1.34074554 15.25569366 1.31706238 14.4677887 C1.14118426 9.59268081 0.66640987 4.83309573 0 0 Z " fill="#010101" transform="translate(199,234)"/>
<path d="M0 0 C0.33 29.04 0.66 58.08 1 88 C1.66 88.33 2.32 88.66 3 89 C2.505 89.99 2.505 89.99 2 91 C-2.95 91 -7.9 91 -13 91 C-12.67475342 89.62690674 -12.34950684 88.25381348 -12.0144043 86.83911133 C-10.73451077 80.40507298 -10.73030802 74.11454862 -10.76953125 67.57421875 C-10.76998947 66.30963333 -10.77044769 65.04504791 -10.7709198 63.74214172 C-10.77392764 61.07868624 -10.7806699 58.41558522 -10.79418945 55.75219727 C-10.81112495 52.37726755 -10.81500436 49.00248781 -10.81424427 45.62752056 C-10.81458542 42.35973897 -10.82344993 39.09198755 -10.83203125 35.82421875 C-10.83370049 34.03609016 -10.83370049 34.03609016 -10.83540344 32.21183777 C-10.88992554 22.40134578 -11.28400645 12.67412668 -13 3 C-11.21189234 2.30329584 -9.41937948 1.61788811 -7.625 0.9375 C-6.62726563 0.55464844 -5.62953125 0.17179688 -4.6015625 -0.22265625 C-2 -1 -2 -1 0 0 Z " fill="#000000" transform="translate(474,205)"/>
<path d="M0 0 C0.90315734 3.10495623 1.14449895 5.91942514 1.18945312 9.14819336 C1.21452942 10.68515114 1.21452942 10.68515114 1.2401123 12.25315857 C1.25368774 13.35426468 1.26726318 14.45537079 1.28125 15.58984375 C1.30886414 17.29485802 1.30886414 17.29485802 1.33703613 19.03431702 C1.39577347 22.66865887 1.4485906 26.30304754 1.5 29.9375 C1.56771231 34.71754608 1.64140064 39.49744501 1.71875 44.27734375 C1.73232544 45.37642563 1.74590088 46.47550751 1.7598877 47.6078949 C1.78496399 49.14958092 1.78496399 49.14958092 1.81054688 50.72241211 C1.82307495 51.62301865 1.83560303 52.52362518 1.84851074 53.45152283 C1.96698124 56.43110601 1.96698124 56.43110601 3 61 C-1.95 61 -6.9 61 -12 61 C-12 57 -12 57 -11 55 C-10.90063565 53.5817533 -10.86171198 52.15901082 -10.85473633 50.73730469 C-10.84835648 49.85588806 -10.84197662 48.97447144 -10.83540344 48.06634521 C-10.83429062 47.11117004 -10.8331778 46.15599487 -10.83203125 45.171875 C-10.82870285 44.19011292 -10.82537445 43.20835083 -10.82194519 42.19683838 C-10.81687521 40.1154426 -10.81453689 38.03403867 -10.81469727 35.95263672 C-10.81251844 32.77688041 -10.7943846 29.6014757 -10.77539062 26.42578125 C-10.77245515 24.40364702 -10.77047138 22.38151114 -10.76953125 20.359375 C-10.76234573 19.41229675 -10.75516022 18.46521851 -10.74775696 17.48944092 C-10.76462971 12.58645529 -11.07289354 8.59985083 -13 4 C-3.7826087 0 -3.7826087 0 0 0 Z " fill="#000000" transform="translate(455,235)"/>
<path d="M0 0 C0.55945313 -0.14824219 1.11890625 -0.29648437 1.6953125 -0.44921875 C5.08789141 -1.25998761 8.46901779 -1.22470569 11.9375 -1.25 C12.64068359 -1.270625 13.34386719 -1.29125 14.06835938 -1.3125 C18.56094582 -1.34618387 21.48058037 -0.85827628 25 2 C26 5 26 5 26 8 C25 9.875 25 9.875 23 11 C19.3125 11.1875 19.3125 11.1875 16 11 C15.34 8.69 14.68 6.38 14 4 C13.34 5.98 12.68 7.96 12 10 C11.01 9.67 10.02 9.34 9 9 C8.87625 8.195625 8.7525 7.39125 8.625 6.5625 C8.41875 5.716875 8.2125 4.87125 8 4 C7.34 3.67 6.68 3.34 6 3 C6.37125 3.763125 6.7425 4.52625 7.125 5.3125 C7.41375 6.199375 7.7025 7.08625 8 8 C7.01 9.485 7.01 9.485 6 11 C2.7421875 11.29296875 2.7421875 11.29296875 -1.125 11.1875 C-3.04699219 11.14689453 -3.04699219 11.14689453 -5.0078125 11.10546875 C-5.99523437 11.07066406 -6.98265625 11.03585937 -8 11 C-9.10647808 8.78704384 -9.19588368 7.45327301 -9.25 5 C-9.27578125 4.29875 -9.3015625 3.5975 -9.328125 2.875 C-9.21984375 2.25625 -9.1115625 1.6375 -9 1 C-5.25686988 -1.49542008 -4.26097838 -0.78262868 0 0 Z M19 4 C19 4.99 19 5.98 19 7 C19.66 7 20.32 7 21 7 C21 6.01 21 5.02 21 4 C20.34 4 19.68 4 19 4 Z M-2 6 C-1.67 6.66 -1.34 7.32 -1 8 C-0.67 7.34 -0.34 6.68 0 6 C-0.66 6 -1.32 6 -2 6 Z " fill="#020203" transform="translate(242,343)"/>
<path d="M0 0 C0.86625 0.020625 1.7325 0.04125 2.625 0.0625 C3.615 0.0625 4.605 0.0625 5.625 0.0625 C12.29166667 0.0625 18.95833333 0.0625 25.625 0.0625 C27.25450412 4.18418689 27.88764601 6.76950357 26.625 11.0625 C20.68872979 12.36683619 14.79167748 12.17336318 8.75 12.125 C7.14511719 12.11823242 7.14511719 12.11823242 5.5078125 12.11132812 C2.88015014 12.09959749 0.25260462 12.08318228 -2.375 12.0625 C-3.375 9.0625 -3.375 9.0625 -2.875 7.125 C-2.29661308 4.73915395 -2.73275399 3.39064177 -3.375 1.0625 C-2.375 0.0625 -2.375 0.0625 0 0 Z M12.625 4.0625 C12.625 5.0525 12.625 6.0425 12.625 7.0625 C13.285 7.0625 13.945 7.0625 14.625 7.0625 C14.625 6.0725 14.625 5.0825 14.625 4.0625 C13.965 4.0625 13.305 4.0625 12.625 4.0625 Z M19.625 6.0625 C19.625 6.7225 19.625 7.3825 19.625 8.0625 C20.285 7.7325 20.945 7.4025 21.625 7.0625 C20.965 6.7325 20.305 6.4025 19.625 6.0625 Z " fill="#030205" transform="translate(238.375,355.9375)"/>
<path d="M0 0 C0.99 0.33 1.98 0.66 3 1 C1.90306105 3.69248651 0.88678696 5.10097379 -1.3125 7.0625 C-5.70156375 11.85984876 -7.95788839 17.87366517 -10 24 C-11.32303717 24.3721042 -12.65737935 24.70630173 -14 25 C-14.33 25.66 -14.66 26.32 -15 27 C-15.05390357 24.06225537 -15.0936255 21.12549768 -15.125 18.1875 C-15.14175781 17.35412109 -15.15851563 16.52074219 -15.17578125 15.66210938 C-15.18222656 14.85966797 -15.18867188 14.05722656 -15.1953125 13.23046875 C-15.20578613 12.49207764 -15.21625977 11.75368652 -15.22705078 10.99291992 C-15 9 -15 9 -13 6 C-12.67 6.99 -12.34 7.98 -12 9 C-11.34 9.33 -10.68 9.66 -10 10 C-9.75121094 9.40832031 -9.50242187 8.81664062 -9.24609375 8.20703125 C-7.82094072 5.68285738 -6.37223967 4.42088005 -4.0625 2.6875 C-3.37285156 2.15511719 -2.68320312 1.62273437 -1.97265625 1.07421875 C-1.32167969 0.71972656 -0.67070312 0.36523438 0 0 Z " fill="#030204" transform="translate(405,235)"/>
<path d="M0 0 C3.5625 0.4375 3.5625 0.4375 5.5 2.5 C6.79941867 6.09251045 7.05400402 8.64589754 6.5625 12.4375 C4.29773555 15.13779608 2.94117037 15.39963296 -0.5625 15.75 C-3.4375 15.4375 -3.4375 15.4375 -5.4375 13.4375 C-5.703125 10.90625 -5.703125 10.90625 -5.6875 7.9375 C-5.69265625 6.9578125 -5.6978125 5.978125 -5.703125 4.96875 C-5.27205454 0.86090211 -3.98452069 0.50712082 0 0 Z " fill="#060505" transform="translate(206.4375,305.5625)"/>
<path d="M0 0 C0.66 1.65 1.32 3.3 2 5 C-1.01095321 6.00365107 -2.30821122 5.94731101 -5.375 5.6875 C-11.35920162 5.58266727 -15.60676374 7.9526802 -20.859375 10.59765625 C-25.03071407 12.46023178 -28.46496664 12.84627006 -33 13 C-33.33 12.34 -33.66 11.68 -34 11 C-34.99 10.67 -35.98 10.34 -37 10 C-37.33 10.66 -37.66 11.32 -38 12 C-38.33 11.34 -38.66 10.68 -39 10 C-36.41859952 7.41859952 -35.45466226 7.83688462 -31.875 7.8125 C-26.14248721 7.46758347 -21.91049811 5.86853974 -16.8125 3.4375 C-10.9114757 0.62456203 -6.65552711 -0.83194089 0 0 Z " fill="#020202" transform="translate(135,254)"/>
<path d="M0 0 C1.875 1.125 1.875 1.125 3 3 C3.36528977 6.4093712 3.6140629 8.88023824 1.9375 11.9375 C-1.20334326 13.65989792 -3.49818786 13.49148241 -7 13 C-9.5 10.875 -9.5 10.875 -11 8 C-11 4.45665039 -10.64741834 2.74333217 -8.3125 0.0625 C-5.12702876 -1.40109489 -3.32118677 -0.98928968 0 0 Z " fill="#020202" transform="translate(453,213)"/>
<path d="M0 0 C1.45792884 -0.05399736 2.91642712 -0.09279177 4.375 -0.125 C5.18710937 -0.14820313 5.99921875 -0.17140625 6.8359375 -0.1953125 C9 0 9 0 11 2 C11.1953125 4.8203125 11.1953125 4.8203125 11.125 8.125 C11.10695313 9.22070312 11.08890625 10.31640625 11.0703125 11.4453125 C11.04710937 12.28835938 11.02390625 13.13140625 11 14 C6.25 13.125 6.25 13.125 4 12 C3.67 12.66 3.34 13.32 3 14 C2.01 14 1.02 14 0 14 C-1.24377393 11.51245214 -1.13306235 9.77344699 -1.125 7 C-1.12757813 6.113125 -1.13015625 5.22625 -1.1328125 4.3125 C-1 2 -1 2 0 0 Z " fill="#020202" transform="translate(251,306)"/>
<path d="M0 0 C1.9375 0.3125 1.9375 0.3125 4 1 C4.33 1.99 4.66 2.98 5 4 C5.66 4.33 6.32 4.66 7 5 C7.33 3.35 7.66 1.7 8 0 C8.99 0 9.98 0 11 0 C12.32229189 2.64458379 12.09677194 4.67761301 12.0625 7.625 C12.05347656 8.62789063 12.04445312 9.63078125 12.03515625 10.6640625 C12.02355469 11.43492187 12.01195312 12.20578125 12 13 C10.68 13.33 9.36 13.66 8 14 C7.67 13.34 7.34 12.68 7 12 C6.01 11.67 5.02 11.34 4 11 C3.67 11.99 3.34 12.98 3 14 C2.01 14 1.02 14 0 14 C-1.24377393 11.51245214 -1.13306235 9.77344699 -1.125 7 C-1.12757813 6.113125 -1.13015625 5.22625 -1.1328125 4.3125 C-1 2 -1 2 0 0 Z " fill="#030303" transform="translate(218,306)"/>
<path d="M0 0 C2.58160408 1.00546685 3.8007222 1.68462642 5.30078125 4.05859375 C5.63464844 4.84363281 5.96851563 5.62867188 6.3125 6.4375 C6.65925781 7.21996094 7.00601562 8.00242187 7.36328125 8.80859375 C8 11 8 11 7 14 C3.04 14 -0.92 14 -5 14 C-4.46515599 8.65155992 -2.53309233 4.64203897 0 0 Z " fill="#040404" transform="translate(271,306)"/>
<path d="M0 0 C1.8125 0.5 1.8125 0.5 4 2 C5.81213892 5.31738334 7.28916393 8.46663529 6.57421875 12.2578125 C6.38472656 12.83273437 6.19523438 13.40765625 6 14 C5.113125 13.814375 4.22625 13.62875 3.3125 13.4375 C0.14821189 13.01957516 -1.94839642 13.19222258 -5 14 C-4.43981302 9.40646673 -3.42668586 3.42668586 0 0 Z " fill="#020202" transform="translate(239,306)"/>
<path d="M0 0 C2.97 0 5.94 0 9 0 C9 1.32 9 2.64 9 4 C8.67 4.33 8.34 4.66 8 5 C7.76807135 6.51469448 7.58784762 8.03754562 7.4375 9.5625 C7.35371094 10.38878906 7.26992188 11.21507812 7.18359375 12.06640625 C7.12300781 12.70449219 7.06242187 13.34257812 7 14 C5.35 14 3.7 14 2 14 C2.061875 12.7625 2.12375 11.525 2.1875 10.25 C2.20362826 7.21788698 2.10651023 6.17751704 0.5 3.5 C0.005 3.005 -0.49 2.51 -1 2 C-0.67 1.34 -0.34 0.68 0 0 Z " fill="#010101" transform="translate(283,306)"/>
<path d="M0 0 C0.66 0.66 1.32 1.32 2 2 C1.21625 1.95875 0.4325 1.9175 -0.375 1.875 C-3.16116119 1.71271266 -3.16116119 1.71271266 -5 4 C-6.97119141 4.04345703 -6.97119141 4.04345703 -9.3515625 3.7578125 C-10.20234375 3.66113281 -11.053125 3.56445312 -11.9296875 3.46484375 C-12.81914063 3.35269531 -13.70859375 3.24054688 -14.625 3.125 C-15.5221875 3.02058594 -16.419375 2.91617188 -17.34375 2.80859375 C-19.5638443 2.54879548 -21.78223534 2.27888059 -24 2 C-24 1.67 -24 1.34 -24 1 C-26.31 0.67 -28.62 0.34 -31 0 C-31 -0.33 -31 -0.66 -31 -1 C-21.11194992 -3.31029208 -9.77441761 -2.65680479 0 0 Z " fill="#0E0E0F" transform="translate(61,207)"/>
<path d="M0 0 C0.95003906 -0.01417969 1.90007812 -0.02835938 2.87890625 -0.04296875 C5.4375 0.1875 5.4375 0.1875 8.4375 2.1875 C7.7775 2.1875 7.1175 2.1875 6.4375 2.1875 C6.1075 3.1775 5.7775 4.1675 5.4375 5.1875 C0.4875 5.1875 -4.4625 5.1875 -9.5625 5.1875 C-9.5625 3.8675 -9.5625 2.5475 -9.5625 1.1875 C-6.32974299 0.23219355 -3.36574361 0.02289622 0 0 Z " fill="#040605" transform="translate(280.5625,232.8125)"/>
<path d="M0 0 C1.03930664 0.01353516 1.03930664 0.01353516 2.09960938 0.02734375 C3.79572395 0.05073843 5.49165871 0.08660359 7.1875 0.125 C4.09861478 2.18425681 3.47814073 2.3640374 0 2.25 C-1.8871875 2.188125 -1.8871875 2.188125 -3.8125 2.125 C-4.1425 2.785 -4.4725 3.445 -4.8125 4.125 C-7.1265622 4.85575648 -9.46078869 5.52638258 -11.8125 6.125 C-12.1425 4.805 -12.4725 3.485 -12.8125 2.125 C-8.53365394 0.0146565 -4.67385858 -0.11628739 0 0 Z " fill="#0F0F12" transform="translate(117.8125,233.875)"/>
<path d="M0 0 C0 0.66 0 1.32 0 2 C-0.68707031 2.19335938 -1.37414062 2.38671875 -2.08203125 2.5859375 C-2.98308594 2.84632813 -3.88414063 3.10671875 -4.8125 3.375 C-5.70582031 3.63023437 -6.59914063 3.88546875 -7.51953125 4.1484375 C-10.20467896 4.95266661 -10.20467896 4.95266661 -13 7 C-13.33 6.34 -13.66 5.68 -14 5 C-14.99 4.67 -15.98 4.34 -17 4 C-17.33 4.66 -17.66 5.32 -18 6 C-18.33 5.34 -18.66 4.68 -19 4 C-16.34287748 1.34287748 -14.76390038 1.64836766 -11.0625 1.4375 C-7.30258575 1.21364119 -3.65261832 0 0 0 Z " fill="#121212" transform="translate(115,260)"/>
<path d="M0 0 C2.475 0.99 2.475 0.99 5 2 C2.09707174 4.39777833 -0.45733641 5.68422011 -4.0625 6.75 C-4.91972656 7.01296875 -5.77695313 7.2759375 -6.66015625 7.546875 C-9 8 -9 8 -12 7 C-11.67 6.34 -11.34 5.68 -11 5 C-8.49609375 4.3671875 -8.49609375 4.3671875 -5.4375 3.875 C-3.91962891 3.62363281 -3.91962891 3.62363281 -2.37109375 3.3671875 C-1.58863281 3.24601562 -0.80617188 3.12484375 0 3 C0 2.01 0 1.02 0 0 Z " fill="#040404" transform="translate(115,259)"/>
<path d="M0 0 C1.134375 0.020625 2.26875 0.04125 3.4375 0.0625 C3.4375 1.3825 3.4375 2.7025 3.4375 4.0625 C2.4475 4.3925 1.4575 4.7225 0.4375 5.0625 C0.1075 5.7225 -0.2225 6.3825 -0.5625 7.0625 C-1.89583333 5.0625 -3.22916667 3.0625 -4.5625 1.0625 C-3.5625 0.0625 -3.5625 0.0625 0 0 Z " fill="#070707" transform="translate(288.5625,305.9375)"/>
<path d="M0 0 C1.98 0.99 1.98 0.99 4 2 C3.67 5.3 3.34 8.6 3 12 C2.34 12 1.68 12 1 12 C0.67 12.66 0.34 13.32 0 14 C0 9.38 0 4.76 0 0 Z " fill="#120F12" transform="translate(390,248)"/>
<path d="M0 0 C0 0.99 0 1.98 0 3 C-6.93 2.67 -13.86 2.34 -21 2 C-21 1.67 -21 1.34 -21 1 C-18.81274749 0.83011631 -16.62518299 0.66424731 -14.4375 0.5 C-12.61025391 0.36078125 -12.61025391 0.36078125 -10.74609375 0.21875 C-7.15365784 0.00897272 -3.59752457 -0.03704015 0 0 Z " fill="#0B0B0C" transform="translate(351,245)"/>
<path d="M0 0 C-0.33 0.99 -0.66 1.98 -1 3 C-4.63 3 -8.26 3 -12 3 C-12 2.01 -12 1.02 -12 0 C-7.6835078 -0.76173392 -4.25566547 -1.16063604 0 0 Z " fill="#212121" transform="translate(44,246)"/>
<path d="M0 0 C-6 4 -6 4 -10 4 C-9 1 -9 1 -6.6875 -0.25 C-3.90126985 -1.0275526 -2.66561622 -0.98726527 0 0 Z " fill="#121212" transform="translate(126,257)"/>
<path d="M0 0 C1.65 0 3.3 0 5 0 C5 1.32 5 2.64 5 4 C4.01 4.495 4.01 4.495 3 5 C1.5 3.625 1.5 3.625 0 2 C0 1.34 0 0.68 0 0 Z " fill="#08080A" transform="translate(236,356)"/>
<path d="M0 0 C1.65 0 3.3 0 5 0 C4.67 0.99 4.34 1.98 4 3 C4.66 3.66 5.32 4.32 6 5 C4.02 5 2.04 5 0 5 C0 3.35 0 1.7 0 0 Z " fill="#0E0E0E" transform="translate(235,347)"/>
<path d="M0 0 C0.99 0.33 1.98 0.66 3 1 C2.34 2.32 1.68 3.64 1 5 C-0.98 5 -2.96 5 -5 5 C-3.35 3.35 -1.7 1.7 0 0 Z " fill="#0B0B0D" transform="translate(405,235)"/>
<path d="M0 0 C-2.3125 2.0625 -2.3125 2.0625 -5 4 C-5.99 3.67 -6.98 3.34 -8 3 C-8 2.01 -8 1.02 -8 0 C-4.94736336 -0.98120464 -3.05263664 -0.98120464 0 0 Z " fill="#0E0F0F" transform="translate(279,234)"/>
<path d="M0 0 C0.94875 0.04125 1.8975 0.0825 2.875 0.125 C2.545 1.445 2.215 2.765 1.875 4.125 C-0.435 3.465 -2.745 2.805 -5.125 2.125 C-3.125 0.125 -3.125 0.125 0 0 Z " fill="#151515" transform="translate(132.125,253.875)"/>
</svg>
